<?xml version="1.0"?>
<svg version="1.1" xmlns="http://www.w3.org/2000/svg" width="400px" height="200px" style="border: dashed 2px #aaa"><path fill="#e81a32" d="M98.5087890625,125.60546875q0,0.0673828125,0.0224609375,0.23583984375t0.0224609375,0.25830078125q0,0.71875-0.26953125,0.8759765625q-0.2470703125,0.4716796875-0.9658203125,0.4716796875q-0.26953125,0-0.404296875-0.134765625q-0.1796875,0.1796875-0.3369140625,0.1796875l-0.404296875-0.134765625l-0.1796875,0l-0.4267578125,0l-0.1796875,0q-0.08984375,0-0.19091796875-0.044921875t-0.16845703125-0.044921875l-0.1123046875,0q-0.044921875,0.044921875-0.1796875,0.044921875q-0.044921875,0-0.16845703125-0.0224609375t-0.19091796875-0.0224609375l-1.0107421875,0l-0.5166015625,0q-0.359375,0.1796875-0.5390625,0.1796875q-0.2470703125,0-0.3818359375-0.134765625q-0.08984375,0.08984375-0.26953125,0.08984375q-0.044921875,0-0.12353515625-0.0224609375t-0.10107421875-0.0224609375l-0.4267578125,0q-0.404296875,0-0.5390625-0.08984375q-0.26953125,0.08984375-0.6513671875,0.08984375q-0.26953125,0-0.5390625-0.08984375l-0.1123046875,0q-0.08984375,0-0.23583984375-0.044921875t-0.21337890625-0.044921875q-0.134765625,0-0.1796875,0.044921875q-0.08984375,0.044921875-0.1796875,0.044921875l-0.2919921875,0l-0.134765625,0q-0.08984375,0.044921875-0.224609375,0.044921875q-0.2021484375,0-0.4716796875-0.08984375q-0.26953125,0.1796875-0.5390625,0.1796875q-0.1796875,0-0.224609375-0.044921875l-0.2021484375,0q-0.1123046875,0-0.314453125,0.0224609375t-0.314453125,0.0224609375q-0.2919921875,0-0.4267578125-0.08984375q-0.1572265625,0-0.52783203125-0.0673828125t-0.52783203125-0.0673828125l-0.44921875,0q-0.3369140625,0-0.4716796875-0.044921875l-0.08984375,0q-0.0673828125,0-0.2021484375-0.03369140625t-0.2021484375-0.03369140625q-0.2021484375,0.2021484375-0.4716796875,0.2021484375q-0.26953125-0.08984375-0.359375-0.08984375q-0.2021484375,0.134765625-0.4267578125,0.134765625l-0.1796875,0l-0.494140625,0l-0.2919921875,0q-0.359375-0.1123046875-0.359375-0.7412109375q0-0.6513671875,0.1796875-1.1005859375q-0.314453125,0.314453125-0.44921875,0.314453125q-0.1796875,0-0.1796875-0.1796875t0.1796875-0.359375q0.44921875-0.583984375,0.44921875-0.6064453125q-0.044921875-0.08984375-0.044921875-0.4267578125q-0.134765625-0.404296875-0.134765625-0.8984375q0-0.853515625,0.314453125-0.9208984375q0.3818359375-0.2919921875,0.8310546875-0.2919921875q0.2021484375,0,0.2919921875,0.044921875l0.08984375,0q0.134765625,0,0.224609375,0.08984375q0.2470703125-0.0673828125,0.404296875-0.224609375q0.044921875-0.044921875,0.2021484375-0.044921875t0.314453125,0.224609375q0.0673828125-0.0673828125,0.50537109375-0.16845703125t0.55029296875-0.10107421875q0.08984375,0,0.224609375-0.14599609375t0.2919921875-0.32568359375t0.224609375-0.224609375q-0.0224609375-0.134765625-0.134765625-0.46044921875t-0.1123046875-0.50537109375q-0.1123046875-0.224609375-0.1796875-0.224609375l-0.08984375,0.0224609375q-0.0673828125,0.0224609375-0.1796875,0.0224609375l-0.134765625,0q-0.4267578125,0-0.4267578125-0.224609375q0-0.26953125,0.4716796875-0.5166015625q0.134765625-0.134765625,0.134765625-0.1796875q0-0.0224609375-0.134765625-0.224609375q-0.6064453125-0.98828125-0.6962890625-1.3701171875q-0.5390625,0.26953125-0.7861328125,0.26953125q-0.224609375,0-0.224609375-0.26953125l0-0.1123046875q-0.2021484375,0-0.5615234375-0.0224609375t-0.5390625-0.0224609375q-0.0673828125,0-0.2021484375-0.044921875t-0.2021484375-0.044921875t-0.26953125,0.0224609375t-0.2919921875,0.0224609375q-0.1796875,0-0.224609375-0.044921875q-0.4716796875,0.134765625-0.9208984375,0.134765625l-0.1796875,0l-0.2021484375,0l-0.404296875,0l-0.224609375,0q-0.08984375,0-0.314453125,0.05615234375t-0.3369140625,0.05615234375q-0.0224609375,0-0.08984375-0.03369140625t-0.08984375-0.03369140625q-0.08984375-0.044921875-0.224609375-0.044921875t-0.4267578125,0.10107421875t-0.44921875,0.10107421875t-0.2470703125-0.044921875q-0.0673828125-0.044921875-0.12353515625-0.1123046875t-0.0673828125-0.1123046875t-0.03369140625-0.07861328125t-0.044921875-0.03369140625q-0.08984375,0-0.224609375,0.134765625q-0.44921875,0.3369140625-0.7412109375,0.3369140625l-0.134765625,0q-0.1572265625-0.044921875-0.4716796875-0.05615234375t-0.404296875-0.03369140625l-0.08984375,0q-0.0673828125,0-0.16845703125,0.044921875t-0.14599609375,0.044921875q-0.1572265625,0-0.2919921875-0.134765625q-0.1572265625,0.044921875-0.19091796875,0.05615234375l-0.0673828125,0.0224609375t-0.0673828125,0.08984375t-0.07861328125,0.14599609375q-0.134765625,0.224609375-0.6064453125,0.6064453125l0,0.08984375q0,0.26953125-0.224609375,0.494140625q-0.08984375,0.08984375-0.08984375,0.224609375l0,0.2021484375l0,0.134765625q0,0.2021484375-0.26953125,1.0107421875q-0.08984375,0.583984375-0.4267578125,1.0107421875q0.0673828125,0.1123046875,0.1123046875,0.14599609375t0.0673828125,0.044921875t0.1123046875,0.01123046875t0.1796875,0.0224609375q0.134765625,0,0.224609375,0.1796875q0.044921875-0.044921875,0.1796875-0.044921875q0.08984375,0,0.134765625,0.044921875q0.224609375,0.044921875,0.6064453125,0.044921875l0.1796875,0q0.6064453125,0,1.0107421875,0.134765625q0.26953125-0.08984375,0.3818359375-0.08984375q0.44921875,0,0.66259765625,0.44921875t0.21337890625,1.033203125q0,0.2470703125-0.0673828125,0.44921875q0.359375-0.1796875,0.4716796875-0.1796875q0.1796875,0,0.1796875,0.1796875q0.044921875,0.044921875,0.044921875,0.1572265625q0,0.08984375-0.07861328125,0.1572265625t-0.23583984375,0.14599609375t-0.1796875,0.10107421875q-0.2021484375,0.2021484375-0.2021484375,0.44921875q0,0.1123046875,0.03369140625,0.37060546875t0.03369140625,0.37060546875l0,0.1796875q0.08984375,0.26953125,0.08984375,0.4267578125q0,0.359375-0.19091796875,0.6064453125t-0.50537109375,0.224609375q-0.4716796875-0.0673828125-0.8759765625-0.134765625l-0.134765625,0q-0.1796875,0-0.5166015625-0.1123046875q-0.0673828125,0.0224609375-0.2470703125,0.08984375t-0.2470703125,0.0673828125q-0.044921875,0-0.10107421875-0.0224609375t-0.07861328125-0.0224609375t-0.10107421875,0.0224609375t-0.10107421875,0.0224609375q-0.08984375,0-0.2470703125-0.0673828125t-0.2470703125-0.08984375q-0.5615234375,0.1572265625-0.9208984375,0.1572265625q-0.26953125,0.08984375-0.6513671875,0.08984375q-0.71875,0-0.9208984375-0.134765625q-0.26953125,0.08984375-0.494140625,0.08984375q-0.404296875,0-0.5615234375-0.2919921875q-0.134765625,0.2021484375-0.59521484375,0.26953125t-0.59521484375,0.1572265625q-0.0224609375,0-0.044921875,0.0224609375t-0.044921875,0.0224609375q-0.044921875,0-0.1123046875-0.044921875t-0.1123046875-0.044921875q-0.1572265625,0-0.6064453125,0.08984375q-0.134765625,0.044921875-0.404296875,0.044921875q-0.3369140625,0-0.6962890625-0.08984375l-0.1796875,0.0224609375q-0.1796875,0.0224609375-0.2919921875,0.0224609375q-0.134765625,0-0.30322265625-0.0224609375t-0.19091796875-0.0224609375q-0.1796875-0.0224609375-0.5166015625-0.0224609375t-0.57275390625-0.0224609375t-0.43798828125-0.08984375t-0.853515625-0.08984375t-0.8984375-0.2021484375q-0.0224609375,0-0.10107421875,0.044921875t-0.12353515625,0.044921875q-0.08984375,0-0.134765625-0.08984375q-0.044921875-0.044921875-0.044921875-0.134765625q0-0.0673828125,0.07861328125-0.21337890625t0.10107421875-0.19091796875q0-0.0673828125-0.0224609375-0.26953125t-0.0224609375-0.2919921875q0-0.134765625,0.0224609375-0.314453125t0.0224609375-0.224609375q0-0.224609375-0.0673828125-0.71875t-0.0673828125-0.71875q0-0.26953125,0.044921875-0.404296875q0-1.4375,1.0556640625-1.4375q0.1796875,0.0224609375,0.7412109375-0.10107421875t0.8310546875-0.12353515625q0.2919921875,0,0.494140625,0.134765625q0.2021484375-0.62890625,0.4716796875-0.8310546875q0.08984375-0.0673828125,0.19091796875-0.08984375t0.1572265625-0.03369140625t0.1123046875-0.0673828125t0.07861328125-0.16845703125q0.044921875-0.0673828125,0.314453125-0.48291015625t0.2919921875-0.61767578125q0.044921875-0.2470703125,0.19091796875-0.50537109375t0.37060546875-0.55029296875t0.314453125-0.4267578125q0-0.0224609375,0.0224609375-0.0673828125t0.0224609375-0.0673828125q0-0.044921875-0.0224609375-0.1572265625t-0.0224609375-0.1572265625q0-0.2021484375,0.134765625-0.3369140625q0.0673828125-0.044921875,0.26953125-0.30322265625t0.3818359375-0.32568359375q-0.1796875,0-0.1796875-0.1796875q0-0.224609375,0.134765625-0.2919921875q0.2470703125-0.2021484375,0.314453125-0.62890625q0.044921875-0.1572265625,0.25830078125-0.46044921875t0.25830078125-0.41552734375t0.14599609375-0.30322265625t0.12353515625-0.34814453125q0-0.08984375,0.03369140625-0.25830078125t0.07861328125-0.359375t0.0673828125-0.25830078125l0-0.08984375q0-0.1572265625,0.1123046875-0.5166015625t0.1123046875-0.404296875q0.044921875-0.2919921875,0.39306640625-0.80859375t0.43798828125-0.763671875q0.08984375-0.26953125,0.3818359375-0.62890625q0-0.3369140625,0.224609375-0.5615234375l0-0.08984375q0-0.1796875,0.08984375-0.404296875t0.25830078125-0.50537109375t0.19091796875-0.32568359375q0.0673828125-0.1796875,0.21337890625-0.52783203125t0.21337890625-0.52783203125q0,0.0673828125-0.1572265625-0.134765625l-0.0673828125-0.1572265625q0-0.224609375,0.314453125-0.5390625q0.224609375-0.3369140625,0.314453125-0.4267578125l0-0.134765625q0-0.134765625,0.08984375-0.314453125q0.26953125-0.80859375,0.4267578125-1.0107421875q0.0673828125-0.1123046875,0.07861328125-0.32568359375t0.10107421875-0.32568359375l0.224609375-0.224609375q0.134765625-0.5390625,0.3818359375-0.6962890625q0.3818359375-1.16796875,0.5390625-1.3701171875q0.08984375-0.6962890625,0.359375-1.212890625q0.044921875-0.1123046875,0.12353515625-0.3369140625t0.12353515625-0.3369140625q0.1572265625-0.62890625,0.224609375-0.6962890625q0.134765625-0.1572265625,0.224609375-0.4716796875t0.134765625-0.404296875q-0.1796875,0-0.1796875-0.1796875q0-0.224609375,0.5615234375-0.7861328125q0.044921875-0.1796875,0.2021484375-0.50537109375t0.2919921875-0.46044921875q0.0224609375-0.0224609375,0.1123046875-0.134765625t0.134765625-0.1572265625t0.134765625-0.14599609375t0.16845703125-0.1572265625t0.16845703125-0.1123046875t0.19091796875-0.07861328125t0.19091796875,0q0.08984375-0.044921875,0.2470703125-0.044921875l0.224609375,0l0.1796875-0.044921875q0.044921875,0-0.08984375,0.0673828125l-0.134765625,0.0673828125q0.08984375-0.044921875,0.404296875-0.1796875q0.044921875-0.044921875,0.1796875-0.044921875q0.0673828125,0,0.2021484375,0.044921875t0.224609375,0.044921875q0.0224609375,0,0.08984375-0.0224609375t0.08984375-0.0224609375l0.08984375,0q0.08984375,0,0.25830078125,0.044921875t0.25830078125,0.044921875q0.134765625-0.08984375,0.494140625-0.08984375l0.3818359375,0l0.134765625,0q0.134765625,0,0.404296875-0.044921875t0.3818359375-0.044921875l0.134765625,0l0.224609375,0q0.1572265625,0,0.6064453125-0.08984375l0.1796875,0q0.2021484375,0,0.64013671875,0.08984375t0.64013671875,0.08984375q0.1572265625,0,0.314453125,0.10107421875t0.2919921875,0.28076171875t0.2470703125,0.37060546875t0.224609375,0.46044921875t0.1796875,0.44921875t0.1572265625,0.4267578125t0.1123046875,0.314453125q0.0224609375-0.0224609375,0.16845703125-0.14599609375t0.25830078125-0.19091796875t0.2021484375-0.044921875q0.2021484375,0,0.2021484375,0.1796875q0,0.1123046875-0.044921875,0.1572265625q-0.0673828125,0.1123046875-0.3369140625,0.28076171875t-0.26953125,0.30322265625l0,0.044921875q0.0673828125,0.224609375,0.359375,0.6962890625q0.08984375,0.1572265625,0.314453125,0.5166015625t0.359375,0.62890625t0.2021484375,0.5615234375q0.2021484375,0.359375,0.43798828125,1.13427734375t0.43798828125,1.11181640625q0.0673828125,0.134765625,0.25830078125,0.43798828125t0.314453125,0.5615234375t0.16845703125,0.48291015625q0.5166015625-0.3369140625,0.6064453125-0.3369140625q0.1572265625,0,0.224609375,0.2470703125l0,0.08984375q0,0.3369140625-0.3369140625,0.673828125q-0.134765625,0.2021484375-0.134765625,0.2919921875l0.08984375,0.1796875q0.134765625,0.1796875,0.3369140625,0.583984375q0.5166015625,0.8759765625,0.583984375,1.572265625q0.1123046875,0.314453125,0.2021484375,0.7861328125q0.134765625,0.134765625,0.134765625,0.26953125q0.044921875,0.044921875,0.134765625,0.044921875t0.134765625,0.08984375q0.044921875,0.044921875,0.044921875,0.1572265625l0,0.26953125l0,0.1796875q0.1123046875,0.1123046875,0.1796875,0.314453125q0.26953125,0.3369140625,0.3818359375,0.6513671875q0.314453125,0.4267578125,0.5615234375,1.3701171875t0.404296875,1.2578125q0.26953125,0.224609375,0.583984375,1.3251953125q0.6962890625,1.3251953125,0.7861328125,1.751953125q0.044921875,0.08984375,0.134765625,0.08984375q0.044921875,0,0.1572265625-0.044921875t0.1796875-0.044921875l0.08984375,0q0.224609375,0.0673828125,0.224609375,0.1796875q0,0.134765625-0.1572265625,0.3369140625t-0.1572265625,0.224609375q0.1796875,0.2919921875,0.359375,0.359375q0.08984375,0,0.314453125,0.9208984375q0.26953125,0.6513671875,0.3369140625,1.0556640625q0.2470703125,0.359375,0.763671875,1.302734375q0.2470703125,0.4716796875,0.70751953125,0.8984375t0.86474609375,0.4267578125q0.134765625,0.0224609375,0.404296875,0.14599609375t0.3818359375,0.12353515625q0.26953125,0,0.44921875,0.08984375q0.134765625-0.044921875,0.4716796875-0.044921875q0.943359375,0,1.2353515625,0.4267578125q0.134765625,0.26953125,0.134765625,0.8310546875q0,0.44921875-0.044921875,0.583984375q0.134765625,0.673828125,0.134765625,1.1005859375q0,0.3369140625-0.08984375,0.6064453125z M97.453125,124.7294921875l0,0.044921875l0-0.044921875l0-0.134765625q0-0.1123046875,0.0224609375-0.44921875t0.0224609375-0.4716796875q0-0.4267578125-0.08984375-0.4267578125q-0.1572265625,0.404296875-0.52783203125,1.15673828125t-0.52783203125,1.15673828125q0.404296875-0.26953125,0.6064453125-0.26953125q0.26953125,0,0.5390625,0.62890625q-0.044921875-0.1796875-0.044921875-0.8759765625l0-0.314453125z M94.0166015625,122.056640625l0,0.044921875l0-0.044921875q-0.08984375-0.044921875-0.16845703125-0.12353515625t-0.12353515625-0.1123046875t-0.08984375-0.03369140625q-0.08984375,0-0.314453125,0.224609375q-0.3369140625,0.2919921875-1.4375,1.392578125q-1.302734375,1.2578125-2.560546875,2.560546875q3.953125-2.2685546875,4.4921875-2.560546875q0.2470703125-0.1796875,0.6513671875-0.4267578125q0.044921875-0.044921875,0.134765625-0.044921875q0.1796875,0,0.1796875,0.224609375q0,0.1572265625-0.044921875,0.2021484375q-0.0673828125,0.134765625-0.2021484375,0.26953125t-0.23583984375,0.224609375t-0.28076171875,0.224609375t-0.2470703125,0.2021484375q-0.3369140625,0.314453125-1.06689453125,0.8759765625t-1.08935546875,0.853515625q0.80859375-0.4716796875,2.41455078125-1.4150390625t2.41455078125-1.392578125l-0.08984375,0q-0.3818359375,0-0.6513671875-0.1796875q-0.1123046875-0.044921875-0.7861328125-0.26953125q-0.224609375-0.0224609375-0.494140625-0.23583984375t-0.404296875-0.46044921875z M90.6923828125,126.1669921875q0.134765625-0.0673828125,0.28076171875-0.1796875t0.3369140625-0.28076171875t0.25830078125-0.23583984375q0.224609375-0.1796875,0.66259765625-0.52783203125t0.66259765625-0.52783203125q-0.44921875,0.2919921875-1.392578125,0.79736328125t-1.4150390625,0.79736328125q0.0673828125,0.0224609375,0.6064453125,0.1572265625z M92.5341796875,120.259765625q-0.1796875-0.224609375-0.359375-0.763671875t-0.2470703125-0.6962890625q-0.0224609375,0.0673828125-0.44921875,0.359375q-0.2021484375,0.134765625-0.59521484375,0.41552734375t-0.59521484375,0.41552734375q-2.5380859375,1.751953125-3.4140625,2.4033203125q-2.96484375,2.1337890625-4.357421875,3.5263671875q0.3369140625,0.0673828125,0.763671875-0.08984375t0.6962890625-0.3369140625t0.77490234375-0.57275390625t0.61767578125-0.46044921875q2.875-1.9765625,3.5263671875-2.4033203125q0.2021484375-0.1123046875,0.68505859375-0.46044921875t0.7861328125-0.5390625t0.75244140625-0.39306640625t0.80859375-0.2470703125q0.0224609375,0,0.07861328125-0.03369140625t0.07861328125-0.03369140625q0.1123046875,0,0.26953125,0.1572265625q0.134765625,0.0673828125,0.134765625,0.1796875q0,0.224609375-0.404296875,0.359375q-2.740234375,1.7294921875-3.279296875,2.111328125q-1.5947265625,1.123046875-2.6728515625,2.0888671875q-0.5166015625,0.5166015625-0.583984375,0.71875q0.26953125-0.08984375,0.5390625-0.2470703125t0.61767578125-0.43798828125t0.48291015625-0.37060546875q0.404296875-0.26953125,1.16796875-0.8310546875t1.1455078125-0.8310546875q0.1572265625-0.1123046875,0.62890625-0.4716796875t0.72998046875-0.55029296875t0.673828125-0.4716796875t0.79736328125-0.46044921875t0.763671875-0.2919921875q-0.3818359375-0.2919921875-0.5615234375-0.7412109375z M85.458984375,120.4169921875l0.044921875,0l-0.044921875,0q0.044921875,0.044921875,0.044921875,0.134765625q0.1796875-0.134765625,0.55029296875-0.41552734375t0.55029296875-0.41552734375q-1.033203125,0.6513671875-1.1455078125,0.6962890625z M90.3330078125,115.5654296875q-0.0224609375-0.0224609375-0.2919921875,0.16845703125t-0.314453125,0.25830078125q0.0224609375-0.0224609375,0.10107421875-0.07861328125t0.16845703125-0.10107421875t0.16845703125-0.10107421875t0.134765625-0.08984375t0.03369140625-0.05615234375z M89.771484375,114.375q-0.71875,0.6064453125-2.1337890625,1.796875t-2.1337890625,1.796875q0.44921875-0.2021484375,0.97705078125-0.52783203125t0.81982421875-0.55029296875t0.943359375-0.72998046875t0.8310546875-0.64013671875q0.0224609375-0.0224609375,0.14599609375-0.08984375t0.2470703125-0.14599609375t0.2470703125-0.16845703125t0.19091796875-0.1796875t0.044921875-0.134765625q-0.1123046875-0.224609375-0.1796875-0.4267578125z M91.703125,118.103515625l-0.044921875,0l0.044921875,0q-0.044921875,0.0224609375-0.134765625,0.08984375t-0.134765625,0.08984375q0.26953125,0.08984375,0.404296875,0.1796875q-0.08984375-0.26953125-0.134765625-0.359375z M91.208984375,117.2724609375q-0.044921875-0.044921875-0.50537109375,0.224609375t-1.13427734375,0.71875t-1.302734375,0.8759765625t-1.17919921875,0.81982421875t-0.61767578125,0.43798828125q0.3818359375-0.2021484375,1.751953125-0.9208984375t2.111328125-1.1455078125q0.1123046875-0.0673828125,0.61767578125-0.32568359375t0.52783203125-0.25830078125q-0.2470703125-0.3818359375-0.26953125-0.4267578125z M88.3564453125,118.05859375l0.359375-0.224609375l-0.5166015625,0.26953125q0.0673828125,0,0.1572265625-0.044921875q1.5947265625-0.9658203125,2.291015625-1.3251953125q0.08984375-0.044921875,0.08984375-0.2021484375q0-0.1123046875-0.08984375-0.314453125l-0.08984375-0.1796875q-0.26953125,0.2021484375-0.763671875,0.673828125t-0.71875,0.6513671875q-1.70703125,1.212890625-2.291015625,1.662109375q0.08984375-0.0673828125,0.66259765625-0.4267578125t0.90966796875-0.5390625z M88.9853515625,112.623046875q-0.044921875-0.08984375-0.1796875-0.583984375q-3.50390625,2.5830078125-5.1884765625,4.22265625q0.1572265625,0.08984375,0.314453125,0.3818359375q0.62890625-0.3818359375,1.94287109375-1.16796875t1.96533203125-1.1904296875q0.98828125-0.62890625,1.0556640625-0.6513671875q0.0673828125-0.044921875,0.1796875-0.08984375t0.1572265625-0.07861328125t0.044921875-0.10107421875q0-0.0224609375-0.0224609375-0.07861328125t-0.0224609375-0.10107421875q-0.044921875-0.0673828125-0.12353515625-0.28076171875t-0.12353515625-0.28076171875z M88.6259765625,111.1630859375q-0.224609375-0.3369140625-0.314453125-0.5166015625q-4.4921875,3.14453125-7.3671875,5.435546875q0.6962890625-0.404296875,2.07763671875-1.20166015625t2.05517578125-1.17919921875q0.134765625-0.0673828125,2.6728515625-1.572265625q0.1796875-0.08984375,0.7412109375-0.4267578125q0.1796875-0.1123046875,0.1796875-0.1796875q0-0.0224609375-0.0224609375-0.134765625t-0.0224609375-0.224609375z M87.794921875,109.7255859375q0.0224609375,0.044921875-1.123046875,0.77490234375t-2.45947265625,1.5048828125t-1.65087890625,0.90966796875q-0.0673828125,0.0224609375-0.5166015625,0.134765625q-0.08984375,0-0.28076171875,0.2470703125t-0.41552734375,0.2021484375q-0.359375,0.6962890625-1.7294921875,1.70703125q0.494140625-0.314453125,2.63916015625-1.67333984375t3.29052734375-2.05517578125q0.1123046875-0.0673828125,0.5615234375-0.34814453125t0.673828125-0.41552734375t0.59521484375-0.2919921875t0.68505859375-0.1796875q-0.044921875-0.08984375-0.134765625-0.25830078125t-0.134765625-0.25830078125z M77.4853515625,116.216796875l0.134765625-0.08984375l-0.134765625,0.08984375q2.021484375-1.4150390625,2.9873046875-2.3359375q-0.673828125,0.404296875-2.05517578125,1.20166015625t-2.07763671875,1.17919921875q0.08984375,0.044921875,0.26953125,0.044921875q0.134765625,0,0.43798828125-0.044921875t0.43798828125-0.044921875z M61.06640625,124.5498046875l0.1796875-0.1796875l-0.1796875,0.1796875q0.583984375-0.5390625,1.88671875-1.34765625q-0.08984375-0.044921875-0.3369140625,0.08984375t-0.50537109375,0.314453125t-0.30322265625,0.2021484375t-0.1796875,0.07861328125t-0.1796875,0.08984375t-0.134765625,0.08984375t-0.134765625,0.1123046875t-0.07861328125,0.14599609375t-0.03369140625,0.1796875l0,0.044921875z M66.63671875,118.5751953125l0,0.134765625q1.2353515625-0.8759765625,4.3798828125-2.5380859375q0.71875-0.359375,2.1337890625-1.2578125t2.2236328125-1.2802734375q-0.044921875,0-0.14599609375-0.044921875t-0.16845703125-0.044921875q-0.3369140625,0-0.6064453125,0.044921875q-0.224609375,0.1123046875-0.5390625,0.1123046875q-0.853515625,0-1.123046875-0.5615234375q-4.04296875,2.42578125-4.626953125,2.7626953125q-0.26953125,0.1572265625-0.404296875,0.39306640625t-0.1572265625,0.3818359375t-0.044921875,0.55029296875q-0.0224609375,0.1572265625-0.21337890625,0.39306640625t-0.21337890625,0.39306640625q-0.0224609375,0.1796875-0.25830078125,0.28076171875t-0.23583984375,0.28076171875z M74.453125,99.236328125l0,0.044921875q0.044921875,0,0.2021484375-0.14599609375t0.1796875-0.16845703125q0.5615234375-0.673828125,0.71875-0.8310546875q0.2021484375-0.224609375,0.6064453125-0.66259765625t0.6064453125-0.66259765625q-0.6064453125,0.404296875-1.212890625,0.7412109375q-0.4716796875,0.1572265625-0.5390625,0.26953125q-0.0673828125,0.62890625-0.5615234375,1.4150390625z M82.224609375,96.67578125l-1.1904296875,0.9208984375q1.1904296875-0.8759765625,1.1904296875-0.9208984375q-4.267578125,3.189453125-8.130859375,6.244140625q3.9306640625-2.7177734375,6.154296875-3.953125q1.751953125-0.9658203125,2.4482421875-1.1005859375q-0.08984375-0.2021484375-0.23583984375-0.6064453125t-0.23583984375-0.583984375z M78.7431640625,104.0654296875l-0.1123046875-0.08984375q0.0673828125,0.08984375,0.1123046875,0.08984375q-0.044921875-0.044921875-0.044921875-0.134765625q0-0.2470703125,0.62890625-0.8759765625q0.4716796875-0.494140625,1.44873046875-1.4375t1.44873046875-1.4150390625q-0.3369140625,0.1796875-2.201171875,1.302734375q-0.08984375,0.044921875-0.6064453125,0.404296875t-0.97705078125,0.61767578125t-0.61767578125,0.16845703125q0.1572265625,0.314453125,0.44921875,1.1005859375t0.5166015625,1.1904296875q0.6962890625-0.6064453125,2.34716796875-1.65087890625t2.39208984375-1.74072265625q-0.134765625,0.0673828125-1.3701171875,0.81982421875t-2.27978515625,1.29150390625t-1.13427734375,0.359375z M84.7626953125,102.650390625q0.0224609375,0.044921875-0.314453125,0.34814453125t-0.72998046875,0.64013671875t-0.43798828125,0.3818359375q-0.3818359375,0.3369140625-1.123046875,1.0107421875t-1.123046875,1.033203125q1.3701171875-0.9208984375,2.9423828125-1.796875q1.0556640625-0.583984375,1.2802734375-0.6513671875q-0.44921875-0.6962890625-0.494140625-0.9658203125z M80.3828125,108.130859375q-0.044921875-0.044921875-0.044921875-0.134765625q0-0.2919921875,0.46044921875-0.79736328125t0.95458984375-0.88720703125t1.123046875-0.8310546875t0.6513671875-0.44921875q-0.853515625,0.494140625-3.189453125,1.931640625q-0.044921875,0.044921875-0.1796875,0.12353515625t-0.2021484375,0.134765625t-0.0673828125,0.12353515625l0,0.044921875l0.08984375,0.314453125q0.224609375,0.3369140625,0.224609375,0.6064453125q0.1123046875,0.2021484375,0.32568359375,0.61767578125t0.32568359375,0.61767578125q1.2353515625-0.8310546875,3.5263671875-2.5830078125q0.08984375-0.0673828125,0.359375-0.2470703125t0.48291015625-0.34814453125t0.4267578125-0.359375t0.314453125-0.39306640625t0.03369140625-0.3818359375q-3.2568359375,2.1337890625-4.447265625,2.7177734375q-0.0224609375,0-0.2021484375,0.08984375t-0.359375,0.1572265625t-0.314453125,0.0673828125q-0.224609375,0-0.2919921875-0.134765625z M79.2373046875,112.263671875l0.044921875,0l-0.08984375,0l0.044921875,0q0.1796875,0,0.583984375,0.08984375t0.5615234375,0.08984375l0.134765625,0q0.2919921875-0.0673828125,0.2919921875-0.134765625l0-0.314453125q-0.044921875-0.0673828125-0.0673828125-0.23583984375t-0.0673828125-0.23583984375q-0.0673828125-0.1123046875-0.16845703125-0.37060546875t-0.16845703125-0.37060546875q-0.1123046875-0.2470703125-0.1796875-0.26953125q-0.1796875,0-0.1796875-0.134765625l0-0.224609375l0-0.08984375q-0.7412109375-1.4375-1.0107421875-2.2236328125q-0.1572265625,0.1123046875-0.3369140625,0.1123046875q-0.134765625,0-0.134765625-0.1572265625q0-0.1796875,0.2919921875-0.404296875q-0.0224609375-0.044921875-0.1123046875-0.2470703125t-0.134765625-0.26953125q-0.0673828125-0.134765625-0.1796875-0.3818359375t-0.1796875-0.3818359375q-0.08984375-0.1796875-0.2919921875-0.55029296875t-0.34814453125-0.68505859375t-0.23583984375-0.6064453125q-0.359375,0.71875-0.404296875,0.763671875l0,0.1123046875q0,0.3818359375-0.2919921875,0.673828125q0.0224609375,0.134765625-0.1123046875,0.494140625t-0.2470703125,0.5166015625q0,0.08984375-0.044921875,0.1572265625t-0.12353515625,0.1572265625t-0.10107421875,0.1572265625q-0.0224609375,0.044921875-0.03369140625,0.19091796875t-0.05615234375,0.21337890625q-0.08984375,0.943359375-0.3369140625,1.482421875q-0.0673828125,0.1572265625-0.23583984375,0.7412109375t-0.34814453125,0.80859375q-0.0224609375,0.224609375-0.314453125,0.494140625t-0.3369140625,0.4267578125q-0.0224609375,0.08984375-0.12353515625,0.314453125t-0.10107421875,0.3818359375q0.44921875,0.08984375,0.8310546875,0.08984375q0.1796875,0,0.5390625-0.08984375l0.1796875,0q0.134765625,0,0.46044921875,0.0673828125t0.46044921875,0.0673828125q0.08984375,0,0.359375-0.0673828125t0.3818359375-0.0673828125q0.0224609375,0,0.0673828125,0.0224609375t0.0673828125,0.0224609375q0.08984375-0.044921875,0.6513671875-0.044921875l0.224609375,0q0.08984375-0.044921875,0.1796875-0.044921875q0.0673828125,0,0.1572265625,0.0673828125t0.1796875,0.0673828125q0.134765625-0.08984375,0.404296875-0.1796875z M72.701171875,112.66796875l-0.314453125,0.2021484375l0,0q0.044921875-0.0673828125,0.314453125-0.2021484375q0.0673828125-0.044921875,0.23583984375-0.3818359375t0.14599609375-0.4716796875q-0.6064453125,0.5390625-3.818359375,2.9423828125z M73.6669921875,110.466796875l-0.044921875,0l0.044921875,0q0,0.0224609375-1.0107421875,0.6962890625q0.1123046875-0.0673828125,1.0107421875-0.6962890625z M68.79296875,113.2294921875q0-0.08984375,1.392578125-0.9208984375q0.26953125-0.1572265625,0.7861328125-0.50537109375t0.763671875-0.50537109375q0.0673828125-0.044921875,0.6513671875-0.4716796875t0.9208984375-0.62890625q0.0224609375-0.0224609375,0.494140625-0.359375t0.5166015625-0.5166015625q-2.3583984375,1.662109375-3.818359375,2.5380859375q-0.5615234375,0.3369140625-1.1904296875,0.62890625q-0.224609375,0.1123046875-0.32568359375,0.37060546875t-0.19091796875,0.37060546875z M69.3544921875,111.859375l0,0.134765625q1.5498046875-0.80859375,4.9638671875-3.234375q0.2470703125-0.1796875,0.359375-0.6513671875t0.2021484375-0.62890625l0-0.134765625q0-0.2021484375,0.14599609375-0.5390625t0.16845703125-0.4716796875q-2.9873046875,2.2236328125-4.177734375,3.2568359375q-0.2470703125,0.1572265625-0.8310546875,0.6513671875q-0.1572265625,0.3818359375-0.4267578125,0.494140625q0,0.583984375-0.404296875,1.123046875z M76.16015625,103.9306640625q0-0.08984375,0.044921875-0.134765625q-2.650390625,1.9091796875-4.3798828125,3.638671875q1.9765625-1.4599609375,3.234375-2.06640625q0.0224609375-0.0224609375,0.37060546875-0.16845703125t0.37060546875-0.21337890625q0.044921875-0.1123046875,0.14599609375-0.48291015625t0.21337890625-0.57275390625z M86.267578125,105.9072265625l-0.1796875,0.2021484375l0.1796875-0.2021484375q-0.62890625,0.62890625-1.6396484375,1.4375q1.3701171875-0.8759765625,1.88671875-1.0107421875q-0.044921875-0.0673828125-0.12353515625-0.21337890625t-0.12353515625-0.21337890625z M86.4248046875,106.828125l-0.3369140625,0.134765625q0.2919921875-0.08984375,0.3369140625-0.134765625q-0.6513671875,0.2919921875-3.728515625,2.2685546875q-0.0224609375,0.0224609375-0.21337890625,0.134765625t-0.41552734375,0.2470703125l-0.44921875,0.26953125t-0.37060546875,0.2470703125t-0.12353515625,0.1572265625q0.1123046875,0.1796875,0.314453125,0.6962890625q0.0673828125-0.2470703125,0.23583984375-0.4716796875t0.46044921875-0.44921875t0.48291015625-0.34814453125t0.57275390625-0.359375t0.4267578125-0.25830078125q0.224609375-0.1572265625,0.90966796875-0.59521484375t1.13427734375-0.7861328125t0.763671875-0.75244140625z M81.73046875,111.5673828125l0.134765625-0.134765625q-0.134765625,0.08984375-0.134765625,0.134765625q0.44921875-0.404296875,1.2353515625-1.0107421875q-0.08984375,0.044921875-0.3818359375,0.26953125t-0.5390625,0.359375t-0.404296875,0.1123046875q0.0224609375,0.0224609375,0.044921875,0.12353515625t0.044921875,0.14599609375z M82.314453125,110.421875q0.4716796875-0.2919921875,1.4375-0.84228515625t1.4599609375-0.81982421875q0.26953125-0.134765625,0.77490234375-0.43798828125t0.75244140625-0.43798828125q0.26953125-0.134765625,0.314453125-0.134765625q-0.0673828125-0.1572265625-0.1796875-0.7861328125q-0.1123046875,0.1796875-0.26953125,0.359375t-0.39306640625,0.359375t-0.37060546875,0.26953125t-0.44921875,0.2919921875t-0.359375,0.2470703125q-0.2919921875,0.224609375-0.8759765625,0.59521484375t-1.033203125,0.68505859375t-0.80859375,0.6513671875z M84.5830078125,102.0888671875l-0.2021484375,0.044921875l0.2021484375-0.044921875q-0.4716796875,0.1572265625-0.95458984375,0.39306640625t-1.0107421875,0.5615234375t-0.853515625,0.55029296875t-0.93212890625,0.66259765625t-0.80859375,0.59521484375q-1.0107421875,0.673828125-0.9658203125,0.7861328125q0.1123046875,0.1123046875,0.1796875,0.314453125q0.0673828125,0.1123046875,0.1572265625,0.37060546875t0.1572265625,0.37060546875q1.88671875-1.572265625,3.279296875-2.8525390625q0.044921875-0.044921875,0.2919921875-0.23583984375t0.4716796875-0.3818359375t0.4716796875-0.41552734375t0.39306640625-0.41552734375t0.12353515625-0.30322265625z M76.564453125,103.009765625q0-0.044921875-0.044921875-0.044921875q-0.0673828125,0-0.314453125,0.2470703125q0.08984375-0.044921875,0.1796875-0.044921875l0.08984375,0.044921875q0-0.0673828125,0.08984375-0.2021484375z M76.025390625,102.1337890625l1.1455078125-0.62890625q0-0.0224609375-0.23583984375,0.10107421875t-0.5166015625,0.28076171875t-0.39306640625,0.2470703125q4.1328125-2.380859375,6.19921875-3.6162109375q-0.62890625,0.2470703125-1.24658203125,0.5390625t-1.38134765625,0.75244140625t-1.13427734375,0.6962890625t-1.31396484375,0.86474609375t-1.123046875,0.763671875z M73.7568359375,101.16796875l0.1123046875-0.08984375q-0.0224609375,0.044921875-0.1123046875,0.08984375q0-0.044921875,0.5166015625-0.314453125t1.1005859375-0.5615234375t0.6962890625-0.359375q1.572265625-0.943359375,3.953125-2.42578125q-0.4267578125,0.2470703125-2.7626953125,1.53857421875t-3.50390625,2.12255859375z M72.9931640625,103.1669921875l0.044921875-0.0673828125q0,0.0224609375-0.044921875,0.0673828125q0-0.0673828125,0.90966796875-0.72998046875t1.24658203125-0.88720703125q2.111328125-1.662109375,3.1669921875-2.4482421875q-2.2236328125,1.392578125-4.087890625,2.4033203125q-0.6064453125,0.1572265625-0.6513671875,0.359375q-0.4267578125,1.1455078125-0.583984375,1.302734375z M72.8359375,104.896484375l-0.08984375,0.08984375q0.134765625-0.08984375,0.134765625-0.134765625l-0.044921875,0.044921875q-0.044921875,0.044921875-0.224609375,0.14599609375t-0.2919921875,0.1796875t-0.23583984375,0.19091796875t-0.16845703125,0.224609375q1.2353515625-0.80859375,1.70703125-1.0556640625z M74.318359375,104.671875l-0.5166015625,0.314453125q0.3369140625-0.134765625,0.5166015625-0.314453125q-0.98828125,0.62890625-1.662109375,1.0107421875l-0.314453125,0.1572265625t-0.46044921875,0.26953125t-0.23583984375,0.224609375q-0.1796875,0.5390625-0.1796875,0.8759765625q0.8310546875-0.8759765625,2.8525390625-2.5380859375z M70.634765625,109.2314453125l0,0.044921875l0,0.044921875q0.0673828125,0,0.3818359375-0.314453125q0.26953125-0.2021484375,0.583984375-0.5166015625q0.943359375-0.763671875,1.4375-1.0556640625q1.4599609375-1.123046875,2.3359375-1.751953125q-0.9658203125,0.494140625-3.1220703125,1.9765625q-0.2021484375,0.1572265625-0.59521484375,0.46044921875t-0.59521484375,0.46044921875q-0.1123046875,0.08984375-0.21337890625,0.32568359375t-0.21337890625,0.32568359375z M68.478515625,114.8017578125q0-0.044921875,0.10107421875-0.14599609375t0.25830078125-0.2021484375t0.2919921875-0.2021484375t0.28076171875-0.1796875t0.16845703125-0.10107421875q0.7412109375-0.5615234375,1.0107421875-0.7861328125q1.078125-0.763671875,1.70703125-1.2802734375q-0.3818359375,0.224609375-1.20166015625,0.68505859375t-1.20166015625,0.68505859375q-0.1796875,0.1123046875-0.57275390625,0.34814453125t-0.57275390625,0.34814453125q-0.134765625,0.0673828125-0.1796875,0.19091796875t-0.05615234375,0.32568359375t-0.03369140625,0.314453125z M68.97265625,117.7890625q-2.15625,1.302734375-2.8974609375,1.931640625q0.3369140625-0.1796875,2.8974609375-1.931640625z M65.8056640625,120.349609375l0,0.0673828125l0.314453125-0.1572265625q0.5615234375-0.3369140625,0.6513671875-0.404296875q0.4716796875-0.2470703125,1.662109375-1.1005859375q0.2919921875-0.2021484375,0.9208984375-0.62890625t0.9208984375-0.62890625q0.08984375-0.0673828125,0.39306640625-0.25830078125t0.5166015625-0.359375t0.32568359375-0.34814453125q-0.1572265625,0.1123046875-1.74072265625,1.24658203125t-2.39208984375,1.67333984375q-0.80859375,0.5166015625-1.0556640625,0.62890625q-0.044921875,0.0224609375-0.1796875,0.0673828125t-0.224609375,0.08984375t-0.1123046875,0.1123046875z M71.8701171875,116.3515625l0.1123046875-0.044921875l-0.1123046875,0.044921875q0.1123046875-0.0673828125,0.32568359375-0.224609375t0.32568359375-0.224609375z M61.4931640625,123.314453125l-0.1123046875,0.224609375q0.1123046875,0,0.2470703125-0.134765625q0-0.08984375-0.134765625-0.08984375z M64.48046875,122.28125q0.0224609375-0.0673828125,0.28076171875-0.2021484375t0.6513671875-0.314453125t0.43798828125-0.2021484375q1.078125-0.62890625,1.796875-1.0107421875q0.0673828125-0.044921875,0.404296875-0.21337890625t0.70751953125-0.359375t0.75244140625-0.41552734375t0.62890625-0.404296875t0.224609375-0.26953125q-1.1455078125,0.62890625-2.9873046875,1.70703125q-0.359375,0.2021484375-1.033203125,0.59521484375t-1.033203125,0.59521484375l-0.2470703125,0.12353515625t-0.37060546875,0.19091796875t-0.21337890625,0.1796875z M75.2841796875,114.5546875l-0.224609375,0.1572265625l0.26953125-0.1572265625l-0.044921875,0q-0.4716796875,0.2919921875-1.70703125,1.16796875q0.2919921875-0.1796875,1.06689453125-0.68505859375t1.20166015625-0.75244140625q-0.08984375,0.044921875-0.28076171875,0.134765625t-0.28076171875,0.134765625z M78.541015625,113.5888671875l-0.673828125,0.5166015625q0.0224609375-0.0224609375,0.05615234375-0.044921875t0.12353515625-0.08984375t0.16845703125-0.12353515625t0.16845703125-0.12353515625t0.1123046875-0.1123046875l0.044921875-0.0224609375q-2.291015625,1.751953125-3.3466796875,2.7626953125q0.2470703125,0,1.1904296875-0.62890625q0.7412109375-0.404296875,1.2353515625-0.7412109375l2.3583984375-1.34765625q-0.134765625,0-0.46044921875-0.044921875t-0.46044921875-0.044921875l-0.044921875,0q-0.044921875,0-0.14599609375,0.044921875t-0.16845703125,0.044921875q-0.0224609375,0-0.07861328125-0.0224609375t-0.07861328125-0.0224609375z M83.662109375,111.859375q1.4375-0.8310546875,3.0322265625-1.9765625q-0.5166015625,0.3369140625-1.52734375,0.98828125t-1.5048828125,0.98828125z M87.345703125,108.669921875q-0.2021484375-0.2919921875-0.2021484375-0.494140625q-2.2685546875,1.5048828125-3.4814453125,2.42578125q-1.841796875,1.212890625-1.796875,1.52734375q2.06640625-1.16796875,4.04296875-2.3583984375q0.80859375-0.44921875,1.2802734375-0.763671875q0.2021484375-0.134765625,0.2021484375-0.1572265625t-0.0224609375-0.07861328125t-0.0224609375-0.10107421875z M85.728515625,104.4921875q-0.044921875-0.044921875-0.1796875-0.4267578125q-0.1123046875,0.08984375-0.66259765625,0.46044921875t-0.72998046875,0.50537109375t-0.64013671875,0.4716796875t-0.70751953125,0.5390625l-0.61767578125,0.50537109375t-0.6513671875,0.583984375t-0.55029296875,0.57275390625q1.1455078125-0.494140625,2.6279296875-1.5048828125q0.134765625-0.0673828125,1.9765625-1.212890625q0.224609375-0.1123046875,0.224609375-0.224609375q0-0.134765625-0.08984375-0.26953125z M84.3359375,101.5048828125q0-0.134765625-0.044921875-0.1796875q-0.2021484375,0.3369140625-0.494140625,0.62890625q0.0673828125-0.044921875,0.2470703125-0.10107421875t0.25830078125-0.134765625t0.03369140625-0.21337890625z M83.841796875,100.1123046875q-0.08984375-0.134765625-0.2919921875-0.41552734375t-0.34814453125-0.5390625t-0.23583984375-0.50537109375q-1.0107421875,0.583984375-2.81884765625,1.87548828125t-2.61669921875,1.80810546875l0.134765625,0.134765625q0.0224609375-0.134765625,0.28076171875-0.314453125t0.62890625-0.37060546875t0.39306640625-0.19091796875l0.72998046875-0.43798828125t0.853515625-0.5166015625t0.70751953125-0.43798828125q0.134765625-0.0673828125,0.46044921875-0.26953125t0.6064453125-0.3369140625t0.50537109375-0.1572265625q0.26953125,0,0.26953125,0.1796875q0,0.08984375-0.0673828125,0.21337890625t-0.1572265625,0.25830078125t-0.08984375,0.1572265625q-0.5390625,0.62890625-1.70703125,1.74072265625t-1.2802734375,1.22412109375q0.3818359375-0.2021484375,1.08935546875-0.62890625t1.06689453125-0.62890625q0.224609375-0.134765625,0.70751953125-0.41552734375t0.70751953125-0.41552734375q0.0673828125-0.0224609375,0.2021484375-0.12353515625t0.26953125-0.16845703125t0.224609375-0.0673828125q-0.044921875-0.08984375-0.1123046875-0.32568359375t-0.1123046875-0.32568359375z M78.541015625,96.3837890625l-0.044921875,0l0.044921875,0q-0.224609375,0.1123046875-0.26953125,0.1123046875q-0.0673828125,0-0.21337890625-0.0224609375t-0.19091796875-0.0224609375q-0.2470703125,0-0.3369140625,0.134765625q-0.224609375,0.26953125-0.66259765625,0.75244140625t-0.48291015625,0.52783203125q-0.5615234375,0.6064453125-2.021484375,2.24609375q1.662109375-0.8310546875,6.5361328125-3.908203125q-0.71875,0.1796875-0.8759765625,0.1796875q-0.134765625,0-0.314453125-0.08984375q-0.0673828125,0.0224609375-0.25830078125,0.1123046875t-0.30322265625,0.08984375l-0.224609375-0.1123046875l-0.224609375,0l-0.1572265625,0z M62.1669921875,126.0546875q0.3369140625,0,0.5166015625,0.1123046875q0.224609375-0.134765625,0.6513671875-0.5615234375q0.8759765625-0.7861328125,1.5048828125-1.1904296875q-0.359375,0.224609375-1.3251953125,0.75244140625t-1.482421875,0.84228515625l-0.044921875-0.044921875q0.044921875,0,0.1796875,0.08984375z M66.0302734375,126.1669921875l0.044921875,0l-0.044921875,0q0.2919921875-0.2021484375,0.8759765625-0.2021484375l0.08984375,0q0.08984375,0.044921875,0.2470703125,0.044921875q0.224609375,0,0.43798828125-0.14599609375t0.48291015625-0.43798828125t0.359375-0.3818359375q0.044921875-0.044921875,0.30322265625-0.28076171875t0.52783203125-0.48291015625t0.5390625-0.5166015625t0.41552734375-0.50537109375t0.10107421875-0.32568359375q-0.044921875-0.044921875-0.134765625-0.044921875q-0.1123046875,0-0.30322265625,0.08984375t-0.3818359375,0.224609375t-0.23583984375,0.1572265625q-0.6962890625,0.359375-1.4375,0.80859375l-3.4365234375,2.0888671875l0.134765625,0q0.08984375,0,0.314453125-0.10107421875t0.3369140625-0.10107421875q0.1572265625,0,0.494140625,0.1123046875q0.0673828125-0.0673828125,0.134765625-0.0673828125t0.134765625,0.0673828125z M70.904296875,125.96484375q0.1796875,0.0224609375,0.3369140625-0.134765625t0.314453125-0.43798828125t0.224609375-0.34814453125q0.404296875-0.5615234375,1.302734375-1.5947265625q-0.44921875,0.1572265625-0.8984375,0.359375t-0.98828125,0.52783203125t-0.81982421875,0.494140625t-0.93212890625,0.6064453125t-0.7861328125,0.52783203125q0.5166015625,0,1.0556640625,0.08984375l0.08984375,0q0.1123046875,0,0.32568359375-0.08984375t0.32568359375-0.08984375q0.08984375,0,0.23583984375,0.044921875t0.21337890625,0.044921875z M73.7568359375,125.60546875q0-0.08984375-0.044921875-0.08984375q-0.0673828125,0-0.1796875,0.1796875q0,0.08984375,0.134765625,0.224609375q0.08984375-0.08984375,0.08984375-0.134765625l0-0.08984375l0-0.08984375z M73.3974609375,124.8642578125l-0.359375,0.26953125q0.08984375-0.08984375,0.359375-0.26953125q0.359375-0.2021484375,0.359375-0.6513671875q0-0.1123046875-0.0224609375-0.37060546875t-0.0224609375-0.39306640625q-0.134765625-0.08984375-0.93212890625,0.97705078125t-1.04443359375,1.49365234375q0.224609375-0.044921875,0.52783203125-0.23583984375t0.64013671875-0.46044921875t0.494140625-0.359375z M71.6904296875,123.359375l0.044921875,0l-0.044921875,0l-0.134765625,0l-0.1796875,0q-0.08984375,0-0.224609375,0.044921875q-0.0673828125,0.0224609375-0.16845703125-0.01123046875t-0.12353515625-0.03369140625q-0.08984375,0-0.134765625,0.08984375q-0.044921875,0.044921875-0.1123046875,0.134765625t-0.1123046875,0.134765625q-0.5166015625,0.5390625-1.6171875,1.572265625q1.1455078125-0.7412109375,3.14453125-1.88671875l-0.1572265625,0q-0.08984375,0-0.1796875-0.044921875z M66.63671875,124.4150390625l0.5615234375-0.3369140625q0.044921875,0-0.7861328125,0.5166015625q0.044921875-0.044921875,0.224609375-0.1796875q0.2470703125-0.134765625,1.5048828125-0.86474609375t1.9541015625-1.11181640625q-0.2470703125-0.2470703125-0.4267578125-0.7861328125q-0.1572265625,0.1123046875-1.0556640625,0.673828125t-1.17919921875,0.7412109375t-1.033203125,0.68505859375t-1.15673828125,0.81982421875t-0.9658203125,0.77490234375t-1.0107421875,0.90966796875q0.4267578125-0.1123046875,0.90966796875-0.34814453125t0.80859375-0.43798828125t0.86474609375-0.55029296875t0.7861328125-0.50537109375z M69.8486328125,120.9560546875q0-0.0224609375-0.25830078125,0.134765625t-0.46044921875,0.2919921875q-0.044921875,0.0224609375-0.41552734375,0.2470703125t-0.59521484375,0.3369140625q0.08984375-0.044921875,0.55029296875-0.25830078125t0.7412109375-0.3818359375t0.43798828125-0.37060546875z M70.41015625,119.49609375q0,0.08984375-1.931640625,1.0556640625q-0.3818359375,0.224609375-1.1904296875,0.68505859375t-1.212890625,0.68505859375q-3.1220703125,1.70703125-4.447265625,2.7177734375q0.2021484375-0.1123046875,1.89794921875-1.1005859375t2.59423828125-1.482421875q0.1123046875-0.0673828125,3.009765625-1.751953125q0.1123046875-0.0673828125,0.41552734375-0.21337890625t0.5390625-0.2919921875t0.32568359375-0.30322265625z M73.9140625,116.53125q0.08984375-0.08984375,0.26953125-0.08984375l0.134765625,0q0.1796875,0,0.26953125-0.134765625q0.3369140625-0.3369140625,0.7412109375-0.673828125q1.34765625-1.16796875,2.111328125-1.751953125q-2.6953125,1.5947265625-4.267578125,2.60546875l0.359375,0q0.2919921875,0,0.3818359375,0.044921875z M78.8330078125,116.26171875l0.044921875-0.044921875l-0.044921875,0.044921875q0.2021484375-0.134765625,0.359375-0.134765625q0.1123046875,0,0.34814453125,0.044921875t0.34814453125,0.044921875q0.134765625,0,0.224609375-0.044921875q0.763671875-0.673828125,1.6171875-1.2802734375q3.4140625-2.515625,4.4921875-3.279296875q-1.1005859375,0.62890625-3.998046875,2.4482421875q-0.359375,0.224609375-1.06689453125,0.68505859375t-1.08935546875,0.68505859375q-0.08984375,0.044921875-0.404296875,0.2470703125t-0.583984375,0.39306640625t-0.2470703125,0.19091796875z M82.08984375,116.216796875l-0.044921875,0l0.044921875,0q0.6513671875,0,1.0107421875-0.08984375q0.1123046875-0.1123046875,0.37060546875-0.34814453125t0.37060546875-0.34814453125q0.4267578125-0.404296875,2.021484375-1.6845703125q-0.6962890625,0.4267578125-2.14501953125,1.26904296875t-2.16748046875,1.24658203125l0.134765625,0q0.044921875,0,0.14599609375-0.0224609375t0.25830078125-0.0224609375z M86.5146484375,115.6328125l-0.3369140625,0.1796875q-0.044921875,0,0.5615234375-0.3369140625q-0.044921875,0.0673828125-0.224609375,0.1572265625q-0.044921875,0.0224609375-0.37060546875,0.19091796875t-0.6513671875,0.34814453125t-0.673828125,0.3818359375t-0.5615234375,0.37060546875t-0.19091796875,0.25830078125q3.4814453125-2.021484375,4.8291015625-3.0322265625q-0.404296875,0.26953125-1.20166015625,0.7412109375t-1.17919921875,0.7412109375z M84.8076171875,118.6201171875q0,0.08984375,0.08984375,0.08984375q0.044921875,0,0.224609375-0.1796875q-0.44921875,0-0.44921875-0.2021484375q0-0.224609375,0.44921875-0.6513671875t0.6962890625-0.583984375q0.26953125-0.2021484375,0.79736328125-0.64013671875t0.77490234375-0.64013671875q-1.5048828125,0.9658203125-3.14453125,1.841796875q0.0673828125,0.2021484375,0.28076171875,0.5166015625t0.28076171875,0.44921875z M85.548828125,119.3837890625l-0.08984375,0.0673828125q0.044921875-0.0224609375,0.08984375-0.0673828125q-0.0673828125,0.0673828125-0.3369140625,0.2021484375l0,0.08984375q0.134765625-0.08984375,0.3369140625-0.2919921875z M82.6962890625,123.2021484375l-0.2470703125,0.2021484375q0.0673828125-0.0673828125,0.2470703125-0.2021484375l-0.134765625,0.044921875q-0.044921875,0-0.10107421875-0.0224609375t-0.10107421875-0.0224609375q-0.0224609375,0-0.044921875,0.0224609375t-0.05615234375,0.044921875t-0.07861328125,0.044921875q-0.2021484375,0-0.26953125,0.224609375q-0.08984375,0.1123046875-0.28076171875,0.314453125t-0.28076171875,0.314453125q0.224609375-0.1572265625,0.673828125-0.48291015625t0.673828125-0.48291015625z M81.2587890625,123.5390625l0.044921875,0q0.0224609375,0,0.05615234375-0.044921875t0.0673828125-0.10107421875t0.05615234375-0.07861328125l-0.044921875,0q-0.1796875,0-0.1796875,0.224609375z M81.4833984375,126.0546875l0.0673828125-0.044921875q-0.0673828125,0-0.0673828125,0.044921875q0.08984375-0.0673828125,0.3369140625-0.19091796875t0.404296875-0.25830078125q0.224609375-0.2919921875,0.5166015625-0.5166015625q0.1572265625-0.134765625,0.48291015625-0.404296875t0.48291015625-0.404296875q0.8759765625-0.7412109375,2.7177734375-2.1337890625q3.548828125-2.515625,4.8740234375-3.3916015625q-0.2021484375,0.0224609375-0.3818359375,0.0673828125t-0.404296875,0.1572265625t-0.32568359375,0.16845703125t-0.37060546875,0.23583984375t-0.314453125,0.2021484375q-0.314453125,0.224609375-0.93212890625,0.61767578125t-0.81982421875,0.52783203125q-1.4150390625,0.8984375-1.70703125,1.0556640625q-0.1572265625,0.08984375-0.25830078125,0.1796875t-0.2021484375,0.2470703125t-0.16845703125,0.224609375q-0.8984375,1.0556640625-1.4375,0.9208984375q-0.0673828125-0.044921875-0.14599609375-0.08984375t-0.12353515625-0.07861328125t-0.08984375-0.03369140625t-0.2919921875,0.1572265625q-0.7861328125,0.5615234375-0.9208984375,0.673828125q-0.5390625,0.3369140625-1.0107421875,0.7412109375q0,0.0673828125,0.0224609375,0.23583984375t0.0224609375,0.23583984375q0.0224609375,0.1572265625-0.05615234375,0.4716796875t-0.07861328125,0.4267578125l0,0.0673828125q0.044921875-0.044921875,0.1796875-0.1123046875z M84.8525390625,126.0546875l0.044921875,0l-0.044921875,0l0.224609375,0.1123046875l0-0.1572265625q0-0.2021484375,0.14599609375-0.44921875t0.314453125-0.404296875t0.41552734375-0.37060546875t0.314453125-0.28076171875q0.8984375-0.71875,2.1787109375-1.6171875q-3.2568359375,2.2236328125-4.4697265625,2.9873046875q0.359375,0.1796875,0.8759765625,0.1796875z M87.974609375,125.919921875l0.044921875,0l-0.08984375,0l0.044921875,0q0.044921875,0,0.2021484375-0.0224609375t0.224609375-0.0224609375q0.134765625,0,0.314453125,0.08984375q0.08984375-0.08984375,0.28076171875-0.2919921875t0.28076171875-0.2919921875q0.224609375-0.224609375,0.68505859375-0.6962890625t0.68505859375-0.6962890625q0.4716796875-0.4716796875,2.6728515625-2.560546875q-0.4267578125,0.08984375-0.9658203125,0.359375t-0.86474609375,0.494140625t-0.943359375,0.70751953125t-0.77490234375,0.59521484375q-0.359375,0.2470703125-1.078125,0.79736328125t-1.29150390625,0.9658203125t-1.13427734375,0.75244140625q0.1123046875,0.0224609375,0.30322265625-0.07861328125t0.30322265625-0.10107421875q0.1796875,0,0.26953125,0.08984375q0.44921875-0.08984375,0.8310546875-0.08984375z M95.56640625,126.099609375q0.08984375,0,0.359375-0.5615234375t0.5615234375-1.2578125t0.314453125-0.7412109375q-1.7294921875,1.0107421875-4.267578125,2.42578125l0.5615234375,0q1.16796875,0,2.470703125,0.134765625z M96.9140625,126.2568359375q0.044921875-0.0224609375,0.1123046875-0.044921875t0.1123046875-0.044921875q-0.044921875-0.0673828125-0.1123046875-0.21337890625t-0.1123046875-0.21337890625q-0.404296875,0.2021484375-0.7412109375,0.4716796875q0.044921875,0.044921875,0.134765625,0.044921875q0.0673828125,0,0.2021484375-0.0224609375t0.2021484375-0.0224609375q0.1572265625,0,0.2021484375,0.044921875z"/><path fill="#" d=""/></svg>
